<?xml version="1.0" encoding="utf-8"?>
<!-- Generator: Adobe Illustrator 24.3.0, SVG Export Plug-In . SVG Version: 6.00 Build 0)  -->
<svg version="1.1" id="Capa_1" xmlns="http://www.w3.org/2000/svg" xmlns:xlink="http://www.w3.org/1999/xlink" x="0px" y="0px"
	 viewBox="0 0 24 24" style="enable-background:new 0 0 24 24;" xml:space="preserve">
<style type="text/css">
	.st0{fill:#0D1321;}
</style>
<path class="st0" d="M9.1,5.1c0.3,0,0.6-0.3,0.6-0.6S9.4,4,9.1,4c0,0,0,0,0,0C8.9,4,8.8,4.1,8.7,4.2C8.6,4.3,8.6,4.4,8.6,4.6
	S8.6,4.9,8.7,5C8.8,5.1,9,5.1,9.1,5.1L9.1,5.1L9.1,5.1L9.1,5.1z M15.2,5.1L15.2,5.1c0.2,0,0.3-0.1,0.4-0.2c0.1-0.1,0.2-0.2,0.2-0.4
	s-0.1-0.3-0.2-0.4C15.5,4.1,15.4,4,15.2,4c0,0,0,0,0,0h0c-0.3,0-0.6,0.3-0.6,0.6S14.9,5.1,15.2,5.1L15.2,5.1z M3.5,7.8
	C4.3,7.8,5,8.4,5,9.2v6.2v0c0,0.4-0.2,0.8-0.4,1c-0.3,0.3-0.6,0.4-1,0.4c0,0,0,0,0,0h0c0,0,0,0,0,0c-0.8,0-1.5-0.7-1.5-1.5
	c0,0,0,0,0,0V9.2c0,0,0,0,0,0c0-0.4,0.2-0.8,0.4-1C2.7,7.9,3.1,7.8,3.5,7.8L3.5,7.8L3.5,7.8L3.5,7.8z M18.8,8v9.6v0
	c0,0.4-0.2,0.8-0.5,1.1c-0.3,0.3-0.7,0.5-1.1,0.5c0,0,0,0,0,0h0h-1.1v3.3c0,0.8-0.7,1.5-1.5,1.5s-1.5-0.7-1.5-1.5v-3.3h-2v3.3v0
	c0,0.8-0.7,1.5-1.5,1.5c0,0,0,0,0,0c0,0,0,0,0,0c-0.4,0-0.8-0.2-1-0.4c-0.3-0.3-0.4-0.6-0.4-1c0,0,0,0,0,0v0l0-3.3H7.1c0,0,0,0,0,0
	c-0.9,0-1.6-0.7-1.6-1.6c0,0,0,0,0,0v0V8L18.8,8z M15.4,2.2c1,0.5,1.8,1.3,2.5,2.2l0,0c0.6,0.9,0.9,1.9,0.9,3.1v0v0H5.5c0,0,0,0,0,0
	c0-1.1,0.3-2.2,0.9-3.1l0,0C7,3.5,7.9,2.7,8.8,2.2l0,0l-1-1.9c0,0,0-0.1,0-0.1c0-0.1,0-0.1,0.1-0.2h0C8,0,8,0,8,0
	c0.1,0,0.2,0,0.2,0.1l0,0l1,1.9c0.9-0.4,1.8-0.6,2.9-0.6s2,0.2,2.9,0.6l0,0l1-1.9C16.1,0,16.2,0,16.3,0c0,0,0.1,0,0.1,0h0
	c0.1,0,0.1,0.1,0.1,0.2c0,0,0,0.1,0,0.1L15.4,2.2z M22.3,9.2v6.2v0c0,0.8-0.7,1.5-1.5,1.5c0,0,0,0,0,0c0,0,0,0,0,0
	c-0.4,0-0.8-0.2-1-0.4c-0.3-0.3-0.4-0.6-0.4-1c0,0,0,0,0,0v0V9.2c0,0,0,0,0,0c0-0.4,0.2-0.8,0.4-1c0.3-0.3,0.6-0.4,1-0.4h0h0h0
	c0.4,0,0.8,0.2,1,0.4C22.1,8.5,22.3,8.8,22.3,9.2L22.3,9.2L22.3,9.2L22.3,9.2z"/>
</svg>
